<svg xmlns="http://www.w3.org/2000/svg" width="800.69" height="249" viewBox="0 0 800.69 249">
  <defs>
    <style>
      .cls-1 {
        fill: #171717;
        fill-rule: evenodd;
      }
    </style>
  </defs>
  <path id="Сандал_копия_2" data-name="Сандал копия 2" class="cls-1" d="M1655.53,898.822c38.7,0,61.2-22.8,63.3-64.2h-30c-2.1,24-12.9,35.4-33.3,35.4-18.3,0-30-11.7-30-36.6v-86.4c0-25.2,11.7-36.9,29.4-36.9,20.1,0,30.9,11.1,32.7,35.7h30c-1.8-41.7-24.3-64.5-62.4-64.5-36.9,0-60.6,23.1-60.6,65.7v86.4C1594.63,875.721,1618.63,898.822,1655.53,898.822Zm136.79-165.6c-31.8,0-52.2,18.6-53.7,48.9h29.1c1.5-14.1,11.1-21,24-21,15.9,0,22.8,10.5,22.8,29.1v11.1h-23.1c-34.8,0-57.3,16.5-57.3,48.9,0,29.7,19.5,48.9,48.6,48.9,17.4,0,28.8-8.1,35.1-18.6l2.1,14.7h23.7v-105C1843.62,753.92,1826.22,733.22,1792.32,733.22Zm22.2,114.9c0,15-9.9,25.2-25.8,25.2s-25.2-8.7-25.2-23.1c0-15.6,10.2-23.7,27.9-23.7h23.1v21.6Zm137.1-111v63.6h-44.1v-63.6h-29.1v158.1h29.1v-67.5h44.1v67.5h29.1V737.12h-29.1Zm46.5,193.2h27.9v-35.1h83.4v35.1h27.9v-61.8h-18V737.12h-91.8c-0.6,25.2-1.8,50.7-3.3,75.9-1.5,22.2-5.4,42.9-14.1,55.5h-12v61.8Zm45-61.8c4.8-12.6,7.8-28.8,9.3-48.9,1.5-18.6,2.1-37.2,2.4-55.8h35.7v104.7h-47.4Zm165.3-135.3c-31.8,0-52.2,18.6-53.7,48.9h29.1c1.5-14.1,11.1-21,24-21,15.9,0,22.8,10.5,22.8,29.1v11.1h-23.1c-34.8,0-57.3,16.5-57.3,48.9,0,29.7,19.5,48.9,48.6,48.9,17.4,0,28.8-8.1,35.1-18.6l2.1,14.7h23.7v-105C2259.72,753.92,2242.32,733.22,2208.42,733.22Zm22.2,114.9c0,15-9.9,25.2-25.8,25.2s-25.2-8.7-25.2-23.1c0-15.6,10.2-23.7,27.9-23.7h23.1v21.6Zm46.49,49.2c31.2,0,46.2-21.3,50.1-65.4,1.8-18.3,3.6-49.5,3.9-68.1h35.4v131.4h28.8V737.12h-92.1c-0.6,30.6-2.7,67.2-4.5,90-2.4,25.2-5.7,42.3-21.6,42.3v27.9Z" transform="translate(-1594.62 -681.312)"/>
</svg>
